<?xml version="1.0" encoding="UTF-8"?>
<svg xmlns="http://www.w3.org/2000/svg" xmlns:xlink="http://www.w3.org/1999/xlink" width="1125" height="411.21" viewBox="0 0 1125 411.21">
<path fill-rule="nonzero" fill="rgb(0%, 0%, 0%)" fill-opacity="1" stroke-width="4.434375" stroke-linecap="round" stroke-linejoin="miter" stroke="rgb(95.684814%, 95.684814%, 95.684814%)" stroke-opacity="1" stroke-miterlimit="4" d="M 297.125 159.921875 L 350.015625 185.398438 "/>
<path fill-rule="nonzero" fill="rgb(0%, 0%, 0%)" fill-opacity="1" stroke-width="4.434375" stroke-linecap="round" stroke-linejoin="miter" stroke="rgb(95.684814%, 95.684814%, 95.684814%)" stroke-opacity="1" stroke-miterlimit="4" d="M 297.125 185.078125 L 350.015625 159.601562 "/>
<path fill-rule="evenodd" fill="rgb(95.684814%, 95.684814%, 95.684814%)" fill-opacity="1" d="M 300.027344 153.148438 C 300.027344 147.808594 295.699219 143.476562 290.355469 143.476562 C 285.011719 143.476562 280.679688 147.808594 280.679688 153.148438 C 280.679688 158.492188 285.011719 162.824219 290.355469 162.824219 C 295.699219 162.824219 300.027344 158.492188 300.027344 153.148438 Z M 296.402344 153.148438 C 296.402344 156.488281 293.695312 159.195312 290.355469 159.195312 C 287.015625 159.195312 284.308594 156.488281 284.308594 153.148438 C 284.308594 149.808594 287.015625 147.101562 290.355469 147.101562 C 293.695312 147.101562 296.402344 149.808594 296.402344 153.148438 Z M 296.402344 153.148438 "/>
<path fill-rule="evenodd" fill="rgb(95.684814%, 95.684814%, 95.684814%)" fill-opacity="1" d="M 300.027344 191.851562 C 300.027344 186.507812 295.699219 182.175781 290.355469 182.175781 C 285.011719 182.175781 280.679688 186.507812 280.679688 191.851562 C 280.679688 197.191406 285.011719 201.523438 290.355469 201.523438 C 295.699219 201.523438 300.027344 197.191406 300.027344 191.851562 Z M 296.402344 191.851562 C 296.402344 195.191406 293.695312 197.898438 290.355469 197.898438 C 287.015625 197.898438 284.308594 195.191406 284.308594 191.851562 C 284.308594 188.511719 287.015625 185.804688 290.355469 185.804688 C 293.695312 185.804688 296.402344 188.511719 296.402344 191.851562 Z M 296.402344 191.851562 "/>
<path fill-rule="nonzero" fill="rgb(95.684814%, 95.684814%, 95.684814%)" fill-opacity="1" d="M 316.152344 172.5 C 316.152344 176.800781 309.703125 176.800781 309.703125 172.5 C 309.703125 168.199219 316.152344 168.199219 316.152344 172.5 Z M 316.152344 172.5 "/>
<path fill-rule="nonzero" fill="rgb(95.684814%, 95.684814%, 95.684814%)" fill-opacity="1" d="M 361.632812 169.804688 L 372.160156 169.804688 C 376.046875 169.804688 379.4375 169.253906 382.339844 168.148438 C 385.238281 167.046875 387.515625 165.4375 389.167969 163.320312 C 390.820312 161.203125 391.648438 158.636719 391.648438 155.621094 C 391.648438 152.140625 390.820312 149.269531 389.167969 147.007812 C 387.515625 144.746094 385.238281 143.066406 382.339844 141.964844 C 379.4375 140.859375 376.046875 140.308594 372.160156 140.308594 L 353.804688 140.308594 L 353.804688 201.210938 L 373.203125 201.210938 C 377.554688 201.210938 381.367188 200.585938 384.644531 199.339844 C 387.921875 198.09375 390.488281 196.164062 392.34375 193.554688 C 394.199219 190.945312 395.128906 187.636719 395.128906 183.636719 C 395.128906 180.734375 394.546875 178.242188 393.386719 176.152344 C 392.226562 174.066406 390.632812 172.355469 388.601562 171.019531 C 386.574219 169.6875 384.238281 168.6875 381.597656 168.019531 C 378.960938 167.351562 376.160156 167.019531 373.203125 167.019531 L 361.632812 167.019531 L 361.632812 172.761719 L 372.59375 172.761719 C 374.335938 172.761719 375.929688 172.949219 377.378906 173.328125 C 378.828125 173.703125 380.105469 174.3125 381.207031 175.152344 C 382.308594 175.996094 383.152344 177.023438 383.730469 178.242188 C 384.3125 179.460938 384.601562 180.910156 384.601562 182.59375 C 384.601562 184.855469 384.078125 186.722656 383.035156 188.203125 C 381.992188 189.683594 380.570312 190.800781 378.773438 191.554688 C 376.972656 192.308594 374.914062 192.683594 372.59375 192.683594 L 364.070312 192.683594 L 364.070312 148.75 L 371.464844 148.75 C 374.363281 148.75 376.699219 149.445312 378.46875 150.835938 C 380.234375 152.230469 381.121094 154.199219 381.121094 156.753906 C 381.121094 158.433594 380.714844 159.871094 379.902344 161.058594 C 379.089844 162.25 377.960938 163.160156 376.507812 163.800781 C 375.058594 164.4375 373.378906 164.757812 371.464844 164.757812 L 361.632812 164.757812 Z M 427.703125 172.152344 L 447.019531 201.210938 L 459.460938 201.210938 L 438.753906 172.152344 Z M 415.089844 140.308594 L 415.089844 201.210938 L 425.355469 201.210938 L 425.355469 140.308594 Z M 421.179688 149.183594 L 433.445312 149.183594 C 435.824219 149.183594 437.882812 149.589844 439.625 150.402344 C 441.363281 151.214844 442.726562 152.375 443.710938 153.882812 C 444.699219 155.390625 445.191406 157.246094 445.191406 159.449219 C 445.191406 161.597656 444.699219 163.4375 443.710938 164.972656 C 442.726562 166.511719 441.363281 167.671875 439.625 168.453125 C 437.882812 169.238281 435.824219 169.628906 433.445312 169.628906 L 421.179688 169.628906 L 421.179688 178.15625 L 433.882812 178.15625 C 438.347656 178.15625 442.203125 177.371094 445.453125 175.804688 C 448.699219 174.238281 451.238281 172.035156 453.066406 169.195312 C 454.890625 166.351562 455.804688 163.015625 455.804688 159.1875 C 455.804688 155.359375 454.890625 152.039062 453.066406 149.226562 C 451.238281 146.414062 448.699219 144.226562 445.453125 142.660156 C 442.203125 141.09375 438.347656 140.308594 433.882812 140.308594 L 421.179688 140.308594 Z M 483.25 170.761719 C 483.25 166.585938 484.148438 162.859375 485.945312 159.582031 C 487.746094 156.304688 490.195312 153.738281 493.296875 151.882812 C 496.402344 150.023438 499.953125 149.097656 503.957031 149.097656 C 508.074219 149.097656 511.683594 150.023438 514.789062 151.882812 C 517.890625 153.738281 520.3125 156.304688 522.050781 159.582031 C 523.792969 162.859375 524.660156 166.585938 524.660156 170.761719 C 524.660156 174.9375 523.777344 178.648438 522.007812 181.894531 C 520.238281 185.144531 517.804688 187.710938 514.699219 189.59375 C 511.597656 191.480469 508.015625 192.421875 503.957031 192.421875 C 499.953125 192.421875 496.402344 191.480469 493.296875 189.59375 C 490.195312 187.710938 487.746094 185.144531 485.945312 181.894531 C 484.148438 178.648438 483.25 174.9375 483.25 170.761719 Z M 472.375 170.761719 C 472.375 175.285156 473.15625 179.488281 474.722656 183.375 C 476.289062 187.261719 478.492188 190.625 481.335938 193.46875 C 484.179688 196.308594 487.527344 198.527344 491.382812 200.121094 C 495.242188 201.71875 499.433594 202.515625 503.957031 202.515625 C 508.597656 202.515625 512.828125 201.71875 516.65625 200.121094 C 520.484375 198.527344 523.820312 196.308594 526.664062 193.46875 C 529.503906 190.625 531.707031 187.261719 533.273438 183.375 C 534.839844 179.488281 535.625 175.285156 535.625 170.761719 C 535.625 166.179688 534.839844 161.972656 533.273438 158.144531 C 531.707031 154.316406 529.492188 150.996094 526.621094 148.183594 C 523.75 145.371094 520.398438 143.167969 516.570312 141.570312 C 512.742188 139.976562 508.539062 139.179688 503.957031 139.179688 C 499.488281 139.179688 495.328125 139.976562 491.472656 141.570312 C 487.613281 143.167969 484.25 145.371094 481.378906 148.183594 C 478.507812 150.996094 476.289062 154.316406 474.722656 158.144531 C 473.15625 161.972656 472.375 166.179688 472.375 170.761719 Z M 548.625 149.792969 L 564.722656 149.792969 L 564.722656 201.210938 L 574.988281 201.210938 L 574.988281 149.792969 L 591.082031 149.792969 L 591.082031 140.308594 L 548.625 140.308594 Z M 611.652344 173.28125 L 655.152344 173.28125 L 655.152344 163.800781 L 611.652344 163.800781 Z M 648.453125 140.308594 L 648.453125 201.210938 L 658.71875 201.210938 L 658.71875 140.308594 Z M 607.5625 140.308594 L 607.5625 201.210938 L 617.828125 201.210938 L 617.828125 140.308594 Z M 687.644531 201.210938 L 718.355469 201.210938 L 718.355469 192.160156 L 687.644531 192.160156 Z M 687.644531 149.359375 L 718.355469 149.359375 L 718.355469 140.308594 L 687.644531 140.308594 Z M 687.644531 173.023438 L 716.613281 173.023438 L 716.613281 164.148438 L 687.644531 164.148438 Z M 681.292969 140.308594 L 681.292969 201.210938 L 691.382812 201.210938 L 691.382812 140.308594 Z M 752.582031 172.152344 L 771.898438 201.210938 L 784.339844 201.210938 L 763.632812 172.152344 Z M 739.96875 140.308594 L 739.96875 201.210938 L 750.234375 201.210938 L 750.234375 140.308594 Z M 746.058594 149.183594 L 758.324219 149.183594 C 760.703125 149.183594 762.761719 149.589844 764.503906 150.402344 C 766.242188 151.214844 767.605469 152.375 768.589844 153.882812 C 769.578125 155.390625 770.070312 157.246094 770.070312 159.449219 C 770.070312 161.597656 769.578125 163.4375 768.589844 164.972656 C 767.605469 166.511719 766.242188 167.671875 764.503906 168.453125 C 762.761719 169.238281 760.703125 169.628906 758.324219 169.628906 L 746.058594 169.628906 L 746.058594 178.15625 L 758.761719 178.15625 C 763.226562 178.15625 767.082031 177.371094 770.332031 175.804688 C 773.578125 174.238281 776.117188 172.035156 777.945312 169.195312 C 779.769531 166.351562 780.683594 163.015625 780.683594 159.1875 C 780.683594 155.359375 779.769531 152.039062 777.945312 149.226562 C 776.117188 146.414062 773.578125 144.226562 770.332031 142.660156 C 767.082031 141.09375 763.226562 140.308594 758.761719 140.308594 L 746.058594 140.308594 Z M 804.734375 181.546875 L 797.078125 186.941406 C 798.414062 189.726562 800.226562 192.308594 802.515625 194.683594 C 804.808594 197.0625 807.476562 198.960938 810.519531 200.382812 C 813.566406 201.804688 816.859375 202.515625 820.394531 202.515625 C 823.003906 202.515625 825.515625 202.09375 827.921875 201.253906 C 830.328125 200.414062 832.488281 199.222656 834.402344 197.6875 C 836.316406 196.148438 837.839844 194.25 838.96875 191.988281 C 840.101562 189.726562 840.667969 187.175781 840.667969 184.332031 C 840.667969 181.664062 840.203125 179.328125 839.273438 177.328125 C 838.347656 175.328125 837.144531 173.601562 835.664062 172.152344 C 834.183594 170.703125 832.53125 169.484375 830.707031 168.496094 C 828.878906 167.511719 827.035156 166.699219 825.179688 166.0625 C 821.933594 164.902344 819.292969 163.769531 817.265625 162.667969 C 815.234375 161.566406 813.742188 160.390625 812.785156 159.144531 C 811.828125 157.898438 811.347656 156.492188 811.347656 154.925781 C 811.347656 153.1875 812.015625 151.664062 813.347656 150.359375 C 814.683594 149.054688 816.769531 148.402344 819.613281 148.402344 C 821.644531 148.402344 823.425781 148.792969 824.964844 149.574219 C 826.5 150.359375 827.847656 151.402344 829.007812 152.707031 C 830.167969 154.011719 831.15625 155.417969 831.964844 156.925781 L 840.230469 152.230469 C 839.246094 150.082031 837.824219 148.023438 835.96875 146.050781 C 834.113281 144.078125 831.851562 142.441406 829.183594 141.136719 C 826.515625 139.832031 823.382812 139.179688 819.785156 139.179688 C 816.132812 139.179688 812.871094 139.875 810 141.265625 C 807.128906 142.660156 804.851562 144.585938 803.167969 147.050781 C 801.488281 149.515625 800.648438 152.375 800.648438 155.621094 C 800.648438 158.464844 801.199219 160.886719 802.300781 162.886719 C 803.402344 164.886719 804.792969 166.570312 806.476562 167.933594 C 808.15625 169.296875 809.925781 170.425781 811.78125 171.324219 C 813.640625 172.222656 815.320312 172.933594 816.828125 173.457031 C 819.378906 174.386719 821.644531 175.328125 823.613281 176.285156 C 825.585938 177.242188 827.109375 178.402344 828.183594 179.765625 C 829.253906 181.128906 829.792969 182.910156 829.792969 185.113281 C 829.792969 187.550781 828.921875 189.523438 827.183594 191.03125 C 825.441406 192.539062 823.179688 193.292969 820.394531 193.292969 C 818.132812 193.292969 816.058594 192.800781 814.175781 191.8125 C 812.289062 190.828125 810.578125 189.464844 809.042969 187.726562 C 807.503906 185.984375 806.070312 183.925781 804.734375 181.546875 Z M 804.734375 181.546875 "/>
<path fill-rule="nonzero" fill="rgb(72.155762%, 72.155762%, 72.155762%)" fill-opacity="1" d="M 485.3125 236.234375 C 485.3125 234.523438 485.675781 233.023438 486.398438 231.730469 C 487.117188 230.441406 488.085938 229.429688 489.304688 228.695312 C 490.519531 227.964844 491.878906 227.597656 493.378906 227.597656 C 494.308594 227.597656 495.164062 227.703125 495.945312 227.914062 C 496.722656 228.121094 497.4375 228.429688 498.082031 228.839844 C 498.726562 229.246094 499.296875 229.738281 499.792969 230.308594 L 499.792969 228.226562 C 498.957031 227.484375 498.042969 226.929688 497.054688 226.558594 C 496.066406 226.1875 494.84375 226.003906 493.378906 226.003906 C 491.992188 226.003906 490.703125 226.253906 489.515625 226.757812 C 488.328125 227.261719 487.300781 227.96875 486.425781 228.882812 C 485.550781 229.792969 484.867188 230.878906 484.375 232.132812 C 483.878906 233.386719 483.632812 234.753906 483.632812 236.234375 C 483.632812 237.71875 483.878906 239.085938 484.375 240.339844 C 484.867188 241.59375 485.550781 242.675781 486.425781 243.589844 C 487.300781 244.5 488.328125 245.207031 489.515625 245.710938 C 490.703125 246.214844 491.992188 246.464844 493.378906 246.464844 C 494.84375 246.464844 496.066406 246.28125 497.054688 245.910156 C 498.042969 245.539062 498.957031 244.984375 499.792969 244.242188 L 499.792969 242.132812 C 499.296875 242.703125 498.734375 243.199219 498.097656 243.617188 C 497.460938 244.035156 496.75 244.347656 495.972656 244.558594 C 495.195312 244.765625 494.328125 244.871094 493.378906 244.871094 C 491.878906 244.871094 490.519531 244.5 489.304688 243.757812 C 488.085938 243.019531 487.117188 242 486.398438 240.710938 C 485.675781 239.417969 485.3125 237.925781 485.3125 236.234375 Z M 485.3125 236.234375 "/>
<path fill-rule="nonzero" fill="rgb(72.155762%, 72.155762%, 72.155762%)" fill-opacity="1" d="M 555.902344 241.960938 L 555.902344 215.285156 L 560.296875 215.285156 L 562.644531 216.601562 L 562.644531 241.226562 L 560.003906 241.960938 Z M 555.902344 241.960938 "/>
<path fill-rule="nonzero" fill="rgb(72.155762%, 72.155762%, 72.155762%)" fill-opacity="1" d="M 559.710938 244.011719 L 560.296875 241.960938 L 562.058594 241.960938 L 561.46875 244.011719 Z M 559.710938 244.011719 "/>
<path fill-rule="nonzero" fill="rgb(72.155762%, 72.155762%, 72.155762%)" fill-opacity="1" d="M 559.417969 242.691406 L 582.578125 242.691406 C 583.546875 242.691406 584.335938 243.480469 584.335938 244.449219 C 584.335938 245.421875 583.546875 246.210938 582.578125 246.210938 L 559.417969 246.210938 C 558.445312 246.210938 557.660156 245.421875 557.660156 244.449219 C 557.660156 243.480469 558.445312 242.691406 559.417969 242.691406 Z M 559.417969 242.691406 "/>
<path fill-rule="nonzero" fill="rgb(72.155762%, 72.155762%, 72.155762%)" fill-opacity="1" d="M 561.03125 244.011719 C 561.03125 246.160156 557.804688 246.160156 557.804688 244.011719 C 557.804688 241.863281 561.03125 241.863281 561.03125 244.011719 Z M 561.03125 244.011719 "/>
<path fill-rule="nonzero" fill="rgb(72.155762%, 72.155762%, 72.155762%)" fill-opacity="1" d="M 624.75 226.261719 L 624.75 239.769531 C 624.75 240.757812 624.890625 241.664062 625.175781 242.492188 C 625.460938 243.316406 625.878906 244.023438 626.429688 244.613281 C 626.980469 245.203125 627.652344 245.664062 628.441406 245.996094 C 629.226562 246.328125 630.125 246.496094 631.132812 246.496094 C 632.140625 246.496094 633.039062 246.328125 633.828125 245.996094 C 634.613281 245.664062 635.285156 245.203125 635.835938 244.613281 C 636.386719 244.023438 636.804688 243.316406 637.089844 242.492188 C 637.375 241.664062 637.515625 240.757812 637.515625 239.769531 L 637.515625 226.261719 L 635.949219 226.261719 L 635.949219 239.769531 C 635.949219 241.363281 635.53125 242.636719 634.695312 243.589844 C 633.859375 244.539062 632.671875 245.011719 631.132812 245.011719 C 629.59375 245.011719 628.40625 244.539062 627.570312 243.589844 C 626.734375 242.636719 626.316406 241.363281 626.316406 239.769531 L 626.316406 226.261719 Z M 624.75 226.261719 "/>
<path fill-rule="nonzero" fill="rgb(72.155762%, 72.155762%, 72.155762%)" fill-opacity="1" d="M 697.386719 235.492188 L 700.609375 235.492188 C 701.730469 235.492188 702.71875 235.328125 703.574219 234.996094 C 704.429688 234.664062 705.097656 234.167969 705.582031 233.511719 C 706.066406 232.859375 706.308594 232.046875 706.308594 231.078125 C 706.308594 230.011719 706.070312 229.125 705.597656 228.410156 C 705.121094 227.699219 704.453125 227.164062 703.585938 226.800781 C 702.722656 226.441406 701.691406 226.261719 700.496094 226.261719 L 696.164062 226.261719 L 696.164062 246.210938 L 700.78125 246.210938 C 702.070312 246.210938 703.214844 246 704.214844 245.582031 C 705.210938 245.164062 705.996094 244.527344 706.566406 243.671875 C 707.136719 242.820312 707.421875 241.734375 707.421875 240.425781 C 707.421875 239.511719 707.234375 238.71875 706.863281 238.042969 C 706.492188 237.371094 706 236.816406 705.382812 236.378906 C 704.765625 235.941406 704.066406 235.613281 703.289062 235.394531 C 702.507812 235.175781 701.710938 235.066406 700.894531 235.066406 L 697.386719 235.066406 L 697.386719 235.976562 L 700.78125 235.976562 C 701.464844 235.976562 702.105469 236.074219 702.703125 236.261719 C 703.300781 236.453125 703.839844 236.734375 704.3125 237.105469 C 704.789062 237.476562 705.160156 237.929688 705.425781 238.472656 C 705.691406 239.015625 705.824219 239.636719 705.824219 240.339844 C 705.824219 241.328125 705.617188 242.148438 705.195312 242.804688 C 704.777344 243.460938 704.191406 243.957031 703.429688 244.300781 C 702.671875 244.640625 701.785156 244.8125 700.78125 244.8125 L 697.730469 244.8125 L 697.730469 227.65625 L 700.496094 227.65625 C 701.785156 227.65625 702.816406 227.964844 703.585938 228.582031 C 704.355469 229.199219 704.742188 230.058594 704.742188 231.160156 C 704.742188 231.941406 704.550781 232.582031 704.171875 233.085938 C 703.792969 233.589844 703.277344 233.964844 702.632812 234.210938 C 701.984375 234.457031 701.273438 234.582031 700.496094 234.582031 L 697.386719 234.582031 Z M 697.386719 235.492188 "/>
<path fill-rule="nonzero" fill="rgb(60.391235%, 60.391235%, 60.391235%)" fill-opacity="1" d="M 413.378906 236.234375 L 467.378906 236.234375 L 467.378906 237.132812 L 413.378906 237.132812 Z M 413.378906 236.234375 "/>
<path fill-rule="nonzero" fill="rgb(60.391235%, 60.391235%, 60.391235%)" fill-opacity="1" d="M 723.960938 236.234375 L 777.960938 236.234375 L 777.960938 237.132812 L 723.960938 237.132812 Z M 723.960938 236.234375 "/>
<path fill-rule="nonzero" fill="rgb(72.155762%, 72.155762%, 72.155762%)" fill-opacity="1" d="M 246.640625 337.953125 L 245.355469 338.75 C 245.679688 339.683594 246.136719 340.546875 246.726562 341.34375 C 247.3125 342.140625 248.046875 342.777344 248.917969 343.253906 C 249.792969 343.730469 250.808594 343.964844 251.96875 343.964844 C 252.785156 343.964844 253.546875 343.839844 254.25 343.582031 C 254.953125 343.324219 255.566406 342.953125 256.085938 342.46875 C 256.609375 341.984375 257.019531 341.410156 257.3125 340.746094 C 257.609375 340.082031 257.753906 339.339844 257.753906 338.523438 C 257.753906 337.648438 257.601562 336.894531 257.296875 336.257812 C 256.996094 335.621094 256.601562 335.074219 256.117188 334.617188 C 255.632812 334.164062 255.09375 333.78125 254.503906 333.476562 C 253.917969 333.175781 253.347656 332.917969 252.796875 332.710938 C 251.730469 332.328125 250.839844 331.925781 250.117188 331.496094 C 249.394531 331.070312 248.851562 330.589844 248.492188 330.058594 C 248.132812 329.527344 247.949219 328.890625 247.949219 328.148438 C 247.949219 327.257812 248.265625 326.511719 248.890625 325.910156 C 249.519531 325.3125 250.410156 325.015625 251.570312 325.015625 C 252.445312 325.015625 253.175781 325.179688 253.765625 325.511719 C 254.355469 325.84375 254.84375 326.257812 255.234375 326.753906 C 255.621094 327.246094 255.921875 327.75 256.128906 328.261719 L 257.5 327.492188 C 257.230469 326.847656 256.84375 326.21875 256.328125 325.613281 C 255.816406 325.003906 255.175781 324.5 254.40625 324.101562 C 253.636719 323.703125 252.71875 323.503906 251.65625 323.503906 C 250.628906 323.503906 249.707031 323.707031 248.890625 324.117188 C 248.074219 324.523438 247.4375 325.09375 246.980469 325.828125 C 246.527344 326.558594 246.296875 327.398438 246.296875 328.347656 C 246.296875 329.203125 246.464844 329.933594 246.796875 330.542969 C 247.128906 331.152344 247.5625 331.667969 248.09375 332.097656 C 248.625 332.523438 249.199219 332.882812 249.816406 333.179688 C 250.433594 333.472656 251.027344 333.726562 251.597656 333.933594 C 252.359375 334.21875 253.085938 334.546875 253.777344 334.917969 C 254.472656 335.289062 255.039062 335.769531 255.476562 336.355469 C 255.910156 336.945312 256.128906 337.726562 256.128906 338.695312 C 256.128906 339.796875 255.765625 340.703125 255.03125 341.414062 C 254.300781 342.128906 253.289062 342.484375 251.996094 342.484375 C 251.046875 342.484375 250.230469 342.28125 249.546875 341.871094 C 248.863281 341.464844 248.289062 340.917969 247.824219 340.234375 C 247.355469 339.550781 246.960938 338.789062 246.640625 337.953125 Z M 315.375 323.761719 L 315.375 343.710938 L 316.941406 343.710938 L 316.941406 323.761719 Z M 390.835938 323.761719 L 390.835938 340.460938 L 375.671875 322.992188 L 375.671875 343.710938 L 377.242188 343.710938 L 377.242188 327.066406 L 392.402344 344.480469 L 392.402344 323.761719 Z M 451.730469 333.734375 C 451.730469 332.023438 452.09375 330.523438 452.816406 329.230469 C 453.535156 327.941406 454.503906 326.929688 455.722656 326.195312 C 456.9375 325.464844 458.296875 325.097656 459.796875 325.097656 C 460.726562 325.097656 461.582031 325.203125 462.363281 325.414062 C 463.140625 325.621094 463.855469 325.929688 464.5 326.339844 C 465.144531 326.746094 465.714844 327.238281 466.210938 327.808594 L 466.210938 325.726562 C 465.375 324.984375 464.460938 324.429688 463.472656 324.058594 C 462.484375 323.6875 461.261719 323.503906 459.796875 323.503906 C 458.410156 323.503906 457.121094 323.753906 455.933594 324.257812 C 454.746094 324.761719 453.71875 325.46875 452.84375 326.382812 C 451.96875 327.292969 451.285156 328.378906 450.792969 329.632812 C 450.296875 330.886719 450.050781 332.253906 450.050781 333.734375 C 450.050781 335.21875 450.296875 336.585938 450.792969 337.839844 C 451.285156 339.09375 451.96875 340.175781 452.84375 341.089844 C 453.71875 342 454.746094 342.707031 455.933594 343.210938 C 457.121094 343.714844 458.410156 343.964844 459.796875 343.964844 C 461.261719 343.964844 462.484375 343.78125 463.472656 343.410156 C 464.460938 343.039062 465.375 342.484375 466.210938 341.742188 L 466.210938 339.632812 C 465.714844 340.203125 465.152344 340.699219 464.515625 341.117188 C 463.878906 341.535156 463.167969 341.847656 462.390625 342.058594 C 461.613281 342.265625 460.746094 342.371094 459.796875 342.371094 C 458.296875 342.371094 456.9375 342 455.722656 341.257812 C 454.503906 340.519531 453.535156 339.5 452.816406 338.210938 C 452.09375 336.917969 451.730469 335.425781 451.730469 333.734375 Z M 525.539062 343.710938 L 535.429688 343.710938 L 535.429688 342.226562 L 525.539062 342.226562 Z M 525.539062 325.242188 L 535.429688 325.242188 L 535.429688 323.761719 L 525.539062 323.761719 Z M 525.539062 333.507812 L 534.859375 333.507812 L 534.859375 332.023438 L 525.539062 332.023438 Z M 524.710938 323.761719 L 524.710938 343.710938 L 526.28125 343.710938 L 526.28125 323.761719 Z M 655.855469 343.710938 L 669.476562 343.710938 L 669.476562 342.226562 L 659.132812 342.226562 L 666.398438 334.734375 C 667.160156 333.953125 667.800781 333.089844 668.324219 332.140625 C 668.847656 331.1875 669.105469 330.171875 669.105469 329.089844 C 669.105469 328.480469 668.992188 327.851562 668.765625 327.195312 C 668.539062 326.539062 668.179688 325.929688 667.695312 325.371094 C 667.210938 324.808594 666.59375 324.347656 665.84375 323.988281 C 665.09375 323.628906 664.195312 323.445312 663.152344 323.445312 C 661.859375 323.445312 660.742188 323.746094 659.800781 324.34375 C 658.863281 324.941406 658.140625 325.777344 657.636719 326.851562 C 657.132812 327.925781 656.878906 329.175781 656.878906 330.601562 L 658.449219 330.601562 C 658.449219 329.460938 658.636719 328.460938 659.019531 327.609375 C 659.398438 326.753906 659.941406 326.09375 660.644531 325.625 C 661.347656 325.160156 662.183594 324.929688 663.152344 324.929688 C 663.890625 324.929688 664.53125 325.058594 665.074219 325.3125 C 665.617188 325.570312 666.066406 325.902344 666.429688 326.3125 C 666.789062 326.71875 667.054688 327.171875 667.226562 327.664062 C 667.398438 328.160156 667.484375 328.652344 667.484375 329.148438 C 667.484375 329.773438 667.382812 330.359375 667.183594 330.898438 C 666.984375 331.441406 666.707031 331.949219 666.355469 332.425781 C 666.003906 332.898438 665.609375 333.382812 665.175781 333.878906 Z M 727.695312 333.734375 C 727.695312 332.5 727.820312 331.351562 728.066406 330.285156 C 728.3125 329.222656 728.667969 328.292969 729.136719 327.492188 C 729.601562 326.695312 730.164062 326.074219 730.832031 325.625 C 731.496094 325.179688 732.246094 324.957031 733.082031 324.957031 C 733.9375 324.957031 734.691406 325.179688 735.347656 325.625 C 736.003906 326.074219 736.5625 326.695312 737.03125 327.492188 C 737.496094 328.292969 737.851562 329.222656 738.097656 330.285156 C 738.34375 331.351562 738.46875 332.5 738.46875 333.734375 C 738.46875 334.96875 738.34375 336.121094 738.097656 337.183594 C 737.851562 338.246094 737.496094 339.179688 737.03125 339.976562 C 736.5625 340.773438 736.003906 341.398438 735.347656 341.84375 C 734.691406 342.289062 733.9375 342.511719 733.082031 342.511719 C 732.246094 342.511719 731.496094 342.289062 730.832031 341.84375 C 730.164062 341.398438 729.601562 340.773438 729.136719 339.976562 C 728.667969 339.179688 728.3125 338.246094 728.066406 337.183594 C 727.820312 336.121094 727.695312 334.96875 727.695312 333.734375 Z M 726.128906 333.734375 C 726.128906 335.691406 726.414062 337.441406 726.984375 338.980469 C 727.554688 340.519531 728.359375 341.738281 729.40625 342.640625 C 730.449219 343.542969 731.675781 343.996094 733.082031 343.996094 C 734.488281 343.996094 735.714844 343.542969 736.757812 342.640625 C 737.804688 341.738281 738.609375 340.519531 739.179688 338.980469 C 739.75 337.441406 740.035156 335.691406 740.035156 333.734375 C 740.035156 331.777344 739.75 330.03125 739.179688 328.492188 C 738.609375 326.953125 737.804688 325.730469 736.757812 324.828125 C 735.714844 323.925781 734.488281 323.476562 733.082031 323.476562 C 731.675781 323.476562 730.449219 323.925781 729.40625 324.828125 C 728.359375 325.730469 727.554688 326.953125 726.984375 328.492188 C 726.414062 330.03125 726.128906 331.777344 726.128906 333.734375 Z M 795.972656 343.710938 L 809.597656 343.710938 L 809.597656 342.226562 L 799.25 342.226562 L 806.519531 334.734375 C 807.277344 333.953125 807.921875 333.089844 808.441406 332.140625 C 808.964844 331.1875 809.226562 330.171875 809.226562 329.089844 C 809.226562 328.480469 809.113281 327.851562 808.882812 327.195312 C 808.65625 326.539062 808.300781 325.929688 807.816406 325.371094 C 807.332031 324.808594 806.714844 324.347656 805.964844 323.988281 C 805.214844 323.628906 804.316406 323.445312 803.269531 323.445312 C 801.976562 323.445312 800.863281 323.746094 799.921875 324.34375 C 798.980469 324.941406 798.257812 325.777344 797.753906 326.851562 C 797.253906 327.925781 797 329.175781 797 330.601562 L 798.566406 330.601562 C 798.566406 329.460938 798.757812 328.460938 799.136719 327.609375 C 799.519531 326.753906 800.058594 326.09375 800.761719 325.625 C 801.464844 325.160156 802.300781 324.929688 803.269531 324.929688 C 804.011719 324.929688 804.652344 325.058594 805.195312 325.3125 C 805.734375 325.570312 806.1875 325.902344 806.546875 326.3125 C 806.910156 326.71875 807.175781 327.171875 807.347656 327.664062 C 807.515625 328.160156 807.601562 328.652344 807.601562 329.148438 C 807.601562 329.773438 807.503906 330.359375 807.304688 330.898438 C 807.101562 331.441406 806.828125 331.949219 806.476562 332.425781 C 806.125 332.898438 805.730469 333.382812 805.292969 333.878906 Z M 867.871094 337.269531 C 867.871094 336.320312 868.085938 335.449219 868.511719 334.660156 C 868.941406 333.871094 869.539062 333.246094 870.308594 332.78125 C 871.078125 332.316406 871.984375 332.082031 873.03125 332.082031 C 873.960938 332.082031 874.796875 332.304688 875.539062 332.75 C 876.28125 333.199219 876.867188 333.816406 877.304688 334.605469 C 877.742188 335.394531 877.960938 336.28125 877.960938 337.269531 C 877.960938 338.296875 877.746094 339.203125 877.320312 339.992188 C 876.890625 340.777344 876.296875 341.40625 875.539062 341.871094 C 874.777344 342.335938 873.90625 342.570312 872.917969 342.570312 C 871.929688 342.570312 871.054688 342.335938 870.292969 341.871094 C 869.535156 341.40625 868.941406 340.777344 868.511719 339.992188 C 868.085938 339.203125 867.871094 338.296875 867.871094 337.269531 Z M 874.339844 323.761719 L 867.757812 332.964844 C 867.378906 333.496094 867.050781 334.144531 866.773438 334.902344 C 866.5 335.664062 866.363281 336.453125 866.363281 337.269531 C 866.363281 338.597656 866.640625 339.765625 867.203125 340.773438 C 867.761719 341.78125 868.539062 342.570312 869.523438 343.140625 C 870.511719 343.710938 871.644531 343.996094 872.917969 343.996094 C 874.207031 343.996094 875.34375 343.710938 876.324219 343.140625 C 877.300781 342.570312 878.070312 341.78125 878.632812 340.773438 C 879.191406 339.765625 879.472656 338.597656 879.472656 337.269531 C 879.472656 336.375 879.320312 335.542969 879.015625 334.773438 C 878.710938 334.003906 878.289062 333.332031 877.746094 332.75 C 877.207031 332.171875 876.578125 331.722656 875.867188 331.398438 C 875.152344 331.074219 874.390625 330.914062 873.570312 330.914062 C 872.753906 330.914062 872.023438 331.042969 871.378906 331.296875 C 870.730469 331.554688 870.171875 331.96875 869.695312 332.539062 L 869.808594 332.625 L 876.308594 323.761719 Z M 874.339844 323.761719 "/>
<path fill-rule="nonzero" fill="rgb(60.391235%, 60.391235%, 60.391235%)" fill-opacity="1" d="M 175.101562 333.734375 L 229.101562 333.734375 L 229.101562 334.632812 L 175.101562 334.632812 Z M 175.101562 333.734375 "/>
<path fill-rule="nonzero" fill="rgb(60.391235%, 60.391235%, 60.391235%)" fill-opacity="1" d="M 895.898438 333.734375 L 949.898438 333.734375 L 949.898438 334.632812 L 895.898438 334.632812 Z M 895.898438 333.734375 "/>
</svg>
