<?xml version="1.0" encoding="UTF-8"?>
<svg xmlns="http://www.w3.org/2000/svg" xmlns:xlink="http://www.w3.org/1999/xlink" width="1125" height="375" viewBox="0 0 1125 375">
<rect x="-112.5" y="-37.5" width="1350" height="450" fill="rgb(92.547607%, 92.547607%, 92.547607%)" fill-opacity="1"/>
<path fill-rule="nonzero" fill="rgb(0%, 0%, 0%)" fill-opacity="1" stroke-width="4.434375" stroke-linecap="round" stroke-linejoin="miter" stroke="rgb(5.882263%, 5.882263%, 5.882263%)" stroke-opacity="1" stroke-miterlimit="4" d="M 297.125 174.921875 L 350.015625 200.398438 "/>
<path fill-rule="nonzero" fill="rgb(0%, 0%, 0%)" fill-opacity="1" stroke-width="4.434375" stroke-linecap="round" stroke-linejoin="miter" stroke="rgb(5.882263%, 5.882263%, 5.882263%)" stroke-opacity="1" stroke-miterlimit="4" d="M 297.125 200.078125 L 350.015625 174.601562 "/>
<path fill-rule="evenodd" fill="rgb(5.882263%, 5.882263%, 5.882263%)" fill-opacity="1" d="M 300.027344 168.148438 C 300.027344 162.808594 295.699219 158.476562 290.355469 158.476562 C 285.011719 158.476562 280.679688 162.808594 280.679688 168.148438 C 280.679688 173.492188 285.011719 177.824219 290.355469 177.824219 C 295.699219 177.824219 300.027344 173.492188 300.027344 168.148438 Z M 296.402344 168.148438 C 296.402344 171.488281 293.695312 174.195312 290.355469 174.195312 C 287.015625 174.195312 284.308594 171.488281 284.308594 168.148438 C 284.308594 164.808594 287.015625 162.101562 290.355469 162.101562 C 293.695312 162.101562 296.402344 164.808594 296.402344 168.148438 Z M 296.402344 168.148438 "/>
<path fill-rule="evenodd" fill="rgb(5.882263%, 5.882263%, 5.882263%)" fill-opacity="1" d="M 300.027344 206.851562 C 300.027344 201.507812 295.699219 197.175781 290.355469 197.175781 C 285.011719 197.175781 280.679688 201.507812 280.679688 206.851562 C 280.679688 212.191406 285.011719 216.523438 290.355469 216.523438 C 295.699219 216.523438 300.027344 212.191406 300.027344 206.851562 Z M 296.402344 206.851562 C 296.402344 210.191406 293.695312 212.898438 290.355469 212.898438 C 287.015625 212.898438 284.308594 210.191406 284.308594 206.851562 C 284.308594 203.511719 287.015625 200.804688 290.355469 200.804688 C 293.695312 200.804688 296.402344 203.511719 296.402344 206.851562 Z M 296.402344 206.851562 "/>
<path fill-rule="nonzero" fill="rgb(5.882263%, 5.882263%, 5.882263%)" fill-opacity="1" d="M 316.152344 187.5 C 316.152344 191.800781 309.703125 191.800781 309.703125 187.5 C 309.703125 183.199219 316.152344 183.199219 316.152344 187.5 Z M 316.152344 187.5 "/>
<path fill-rule="nonzero" fill="rgb(5.882263%, 5.882263%, 5.882263%)" fill-opacity="1" d="M 361.632812 184.804688 L 372.160156 184.804688 C 376.046875 184.804688 379.4375 184.253906 382.339844 183.148438 C 385.238281 182.046875 387.515625 180.4375 389.167969 178.320312 C 390.820312 176.203125 391.648438 173.636719 391.648438 170.621094 C 391.648438 167.140625 390.820312 164.269531 389.167969 162.007812 C 387.515625 159.746094 385.238281 158.066406 382.339844 156.964844 C 379.4375 155.859375 376.046875 155.308594 372.160156 155.308594 L 353.804688 155.308594 L 353.804688 216.210938 L 373.203125 216.210938 C 377.554688 216.210938 381.367188 215.585938 384.644531 214.339844 C 387.921875 213.09375 390.488281 211.164062 392.34375 208.554688 C 394.199219 205.945312 395.128906 202.636719 395.128906 198.636719 C 395.128906 195.734375 394.546875 193.242188 393.386719 191.152344 C 392.226562 189.066406 390.632812 187.355469 388.601562 186.019531 C 386.574219 184.6875 384.238281 183.6875 381.597656 183.019531 C 378.960938 182.351562 376.160156 182.019531 373.203125 182.019531 L 361.632812 182.019531 L 361.632812 187.761719 L 372.59375 187.761719 C 374.335938 187.761719 375.929688 187.949219 377.378906 188.328125 C 378.828125 188.703125 380.105469 189.3125 381.207031 190.152344 C 382.308594 190.996094 383.152344 192.023438 383.730469 193.242188 C 384.3125 194.460938 384.601562 195.910156 384.601562 197.59375 C 384.601562 199.855469 384.078125 201.722656 383.035156 203.203125 C 381.992188 204.683594 380.570312 205.800781 378.773438 206.554688 C 376.972656 207.308594 374.914062 207.683594 372.59375 207.683594 L 364.070312 207.683594 L 364.070312 163.75 L 371.464844 163.75 C 374.363281 163.75 376.699219 164.445312 378.46875 165.835938 C 380.234375 167.230469 381.121094 169.199219 381.121094 171.753906 C 381.121094 173.433594 380.714844 174.871094 379.902344 176.058594 C 379.089844 177.25 377.960938 178.160156 376.507812 178.800781 C 375.058594 179.4375 373.378906 179.757812 371.464844 179.757812 L 361.632812 179.757812 Z M 427.703125 187.152344 L 447.019531 216.210938 L 459.460938 216.210938 L 438.753906 187.152344 Z M 415.089844 155.308594 L 415.089844 216.210938 L 425.355469 216.210938 L 425.355469 155.308594 Z M 421.179688 164.183594 L 433.445312 164.183594 C 435.824219 164.183594 437.882812 164.589844 439.625 165.402344 C 441.363281 166.214844 442.726562 167.375 443.710938 168.882812 C 444.699219 170.390625 445.191406 172.246094 445.191406 174.449219 C 445.191406 176.597656 444.699219 178.4375 443.710938 179.972656 C 442.726562 181.511719 441.363281 182.671875 439.625 183.453125 C 437.882812 184.238281 435.824219 184.628906 433.445312 184.628906 L 421.179688 184.628906 L 421.179688 193.15625 L 433.882812 193.15625 C 438.347656 193.15625 442.203125 192.371094 445.453125 190.804688 C 448.699219 189.238281 451.238281 187.035156 453.066406 184.195312 C 454.890625 181.351562 455.804688 178.015625 455.804688 174.1875 C 455.804688 170.359375 454.890625 167.039062 453.066406 164.226562 C 451.238281 161.414062 448.699219 159.226562 445.453125 157.660156 C 442.203125 156.09375 438.347656 155.308594 433.882812 155.308594 L 421.179688 155.308594 Z M 483.25 185.761719 C 483.25 181.585938 484.148438 177.859375 485.945312 174.582031 C 487.746094 171.304688 490.195312 168.738281 493.296875 166.882812 C 496.402344 165.023438 499.953125 164.097656 503.957031 164.097656 C 508.074219 164.097656 511.683594 165.023438 514.789062 166.882812 C 517.890625 168.738281 520.3125 171.304688 522.050781 174.582031 C 523.792969 177.859375 524.660156 181.585938 524.660156 185.761719 C 524.660156 189.9375 523.777344 193.648438 522.007812 196.894531 C 520.238281 200.144531 517.804688 202.710938 514.699219 204.59375 C 511.597656 206.480469 508.015625 207.421875 503.957031 207.421875 C 499.953125 207.421875 496.402344 206.480469 493.296875 204.59375 C 490.195312 202.710938 487.746094 200.144531 485.945312 196.894531 C 484.148438 193.648438 483.25 189.9375 483.25 185.761719 Z M 472.375 185.761719 C 472.375 190.285156 473.15625 194.488281 474.722656 198.375 C 476.289062 202.261719 478.492188 205.625 481.335938 208.46875 C 484.179688 211.308594 487.527344 213.527344 491.382812 215.121094 C 495.242188 216.71875 499.433594 217.515625 503.957031 217.515625 C 508.597656 217.515625 512.828125 216.71875 516.65625 215.121094 C 520.484375 213.527344 523.820312 211.308594 526.664062 208.46875 C 529.503906 205.625 531.707031 202.261719 533.273438 198.375 C 534.839844 194.488281 535.625 190.285156 535.625 185.761719 C 535.625 181.179688 534.839844 176.972656 533.273438 173.144531 C 531.707031 169.316406 529.492188 165.996094 526.621094 163.183594 C 523.75 160.371094 520.398438 158.167969 516.570312 156.570312 C 512.742188 154.976562 508.539062 154.179688 503.957031 154.179688 C 499.488281 154.179688 495.328125 154.976562 491.472656 156.570312 C 487.613281 158.167969 484.25 160.371094 481.378906 163.183594 C 478.507812 165.996094 476.289062 169.316406 474.722656 173.144531 C 473.15625 176.972656 472.375 181.179688 472.375 185.761719 Z M 548.625 164.792969 L 564.722656 164.792969 L 564.722656 216.210938 L 574.988281 216.210938 L 574.988281 164.792969 L 591.082031 164.792969 L 591.082031 155.308594 L 548.625 155.308594 Z M 611.652344 188.28125 L 655.152344 188.28125 L 655.152344 178.800781 L 611.652344 178.800781 Z M 648.453125 155.308594 L 648.453125 216.210938 L 658.71875 216.210938 L 658.71875 155.308594 Z M 607.5625 155.308594 L 607.5625 216.210938 L 617.828125 216.210938 L 617.828125 155.308594 Z M 687.644531 216.210938 L 718.355469 216.210938 L 718.355469 207.160156 L 687.644531 207.160156 Z M 687.644531 164.359375 L 718.355469 164.359375 L 718.355469 155.308594 L 687.644531 155.308594 Z M 687.644531 188.023438 L 716.613281 188.023438 L 716.613281 179.148438 L 687.644531 179.148438 Z M 681.292969 155.308594 L 681.292969 216.210938 L 691.382812 216.210938 L 691.382812 155.308594 Z M 752.582031 187.152344 L 771.898438 216.210938 L 784.339844 216.210938 L 763.632812 187.152344 Z M 739.96875 155.308594 L 739.96875 216.210938 L 750.234375 216.210938 L 750.234375 155.308594 Z M 746.058594 164.183594 L 758.324219 164.183594 C 760.703125 164.183594 762.761719 164.589844 764.503906 165.402344 C 766.242188 166.214844 767.605469 167.375 768.589844 168.882812 C 769.578125 170.390625 770.070312 172.246094 770.070312 174.449219 C 770.070312 176.597656 769.578125 178.4375 768.589844 179.972656 C 767.605469 181.511719 766.242188 182.671875 764.503906 183.453125 C 762.761719 184.238281 760.703125 184.628906 758.324219 184.628906 L 746.058594 184.628906 L 746.058594 193.15625 L 758.761719 193.15625 C 763.226562 193.15625 767.082031 192.371094 770.332031 190.804688 C 773.578125 189.238281 776.117188 187.035156 777.945312 184.195312 C 779.769531 181.351562 780.683594 178.015625 780.683594 174.1875 C 780.683594 170.359375 779.769531 167.039062 777.945312 164.226562 C 776.117188 161.414062 773.578125 159.226562 770.332031 157.660156 C 767.082031 156.09375 763.226562 155.308594 758.761719 155.308594 L 746.058594 155.308594 Z M 804.734375 196.546875 L 797.078125 201.941406 C 798.414062 204.726562 800.226562 207.308594 802.515625 209.683594 C 804.808594 212.0625 807.476562 213.960938 810.519531 215.382812 C 813.566406 216.804688 816.859375 217.515625 820.394531 217.515625 C 823.003906 217.515625 825.515625 217.09375 827.921875 216.253906 C 830.328125 215.414062 832.488281 214.222656 834.402344 212.6875 C 836.316406 211.148438 837.839844 209.25 838.96875 206.988281 C 840.101562 204.726562 840.667969 202.175781 840.667969 199.332031 C 840.667969 196.664062 840.203125 194.328125 839.273438 192.328125 C 838.347656 190.328125 837.144531 188.601562 835.664062 187.152344 C 834.183594 185.703125 832.53125 184.484375 830.707031 183.496094 C 828.878906 182.511719 827.035156 181.699219 825.179688 181.0625 C 821.933594 179.902344 819.292969 178.769531 817.265625 177.667969 C 815.234375 176.566406 813.742188 175.390625 812.785156 174.144531 C 811.828125 172.898438 811.347656 171.492188 811.347656 169.925781 C 811.347656 168.1875 812.015625 166.664062 813.347656 165.359375 C 814.683594 164.054688 816.769531 163.402344 819.613281 163.402344 C 821.644531 163.402344 823.425781 163.792969 824.964844 164.574219 C 826.5 165.359375 827.847656 166.402344 829.007812 167.707031 C 830.167969 169.011719 831.15625 170.417969 831.964844 171.925781 L 840.230469 167.230469 C 839.246094 165.082031 837.824219 163.023438 835.96875 161.050781 C 834.113281 159.078125 831.851562 157.441406 829.183594 156.136719 C 826.515625 154.832031 823.382812 154.179688 819.785156 154.179688 C 816.132812 154.179688 812.871094 154.875 810 156.265625 C 807.128906 157.660156 804.851562 159.585938 803.167969 162.050781 C 801.488281 164.515625 800.648438 167.375 800.648438 170.621094 C 800.648438 173.464844 801.199219 175.886719 802.300781 177.886719 C 803.402344 179.886719 804.792969 181.570312 806.476562 182.933594 C 808.15625 184.296875 809.925781 185.425781 811.78125 186.324219 C 813.640625 187.222656 815.320312 187.933594 816.828125 188.457031 C 819.378906 189.386719 821.644531 190.328125 823.613281 191.285156 C 825.585938 192.242188 827.109375 193.402344 828.183594 194.765625 C 829.253906 196.128906 829.792969 197.910156 829.792969 200.113281 C 829.792969 202.550781 828.921875 204.523438 827.183594 206.03125 C 825.441406 207.539062 823.179688 208.292969 820.394531 208.292969 C 818.132812 208.292969 816.058594 207.800781 814.175781 206.8125 C 812.289062 205.828125 810.578125 204.464844 809.042969 202.726562 C 807.503906 200.984375 806.070312 198.925781 804.734375 196.546875 Z M 804.734375 196.546875 "/>
<path fill-rule="nonzero" fill="rgb(35.293579%, 35.293579%, 35.293579%)" fill-opacity="1" d="M 485.3125 251.234375 C 485.3125 249.523438 485.675781 248.023438 486.398438 246.730469 C 487.117188 245.441406 488.085938 244.429688 489.304688 243.695312 C 490.519531 242.964844 491.878906 242.597656 493.378906 242.597656 C 494.308594 242.597656 495.164062 242.703125 495.945312 242.914062 C 496.722656 243.121094 497.4375 243.429688 498.082031 243.839844 C 498.726562 244.246094 499.296875 244.738281 499.792969 245.308594 L 499.792969 243.226562 C 498.957031 242.484375 498.042969 241.929688 497.054688 241.558594 C 496.066406 241.1875 494.84375 241.003906 493.378906 241.003906 C 491.992188 241.003906 490.703125 241.253906 489.515625 241.757812 C 488.328125 242.261719 487.300781 242.96875 486.425781 243.882812 C 485.550781 244.792969 484.867188 245.878906 484.375 247.132812 C 483.878906 248.386719 483.632812 249.753906 483.632812 251.234375 C 483.632812 252.71875 483.878906 254.085938 484.375 255.339844 C 484.867188 256.59375 485.550781 257.675781 486.425781 258.589844 C 487.300781 259.5 488.328125 260.207031 489.515625 260.710938 C 490.703125 261.214844 491.992188 261.464844 493.378906 261.464844 C 494.84375 261.464844 496.066406 261.28125 497.054688 260.910156 C 498.042969 260.539062 498.957031 259.984375 499.792969 259.242188 L 499.792969 257.132812 C 499.296875 257.703125 498.734375 258.199219 498.097656 258.617188 C 497.460938 259.035156 496.75 259.347656 495.972656 259.558594 C 495.195312 259.765625 494.328125 259.871094 493.378906 259.871094 C 491.878906 259.871094 490.519531 259.5 489.304688 258.757812 C 488.085938 258.019531 487.117188 257 486.398438 255.710938 C 485.675781 254.417969 485.3125 252.925781 485.3125 251.234375 Z M 485.3125 251.234375 "/>
<path fill-rule="nonzero" fill="rgb(35.293579%, 35.293579%, 35.293579%)" fill-opacity="1" d="M 555.902344 256.960938 L 555.902344 230.285156 L 560.296875 230.285156 L 562.644531 231.601562 L 562.644531 256.226562 L 560.003906 256.960938 Z M 555.902344 256.960938 "/>
<path fill-rule="nonzero" fill="rgb(35.293579%, 35.293579%, 35.293579%)" fill-opacity="1" d="M 559.710938 259.011719 L 560.296875 256.960938 L 562.058594 256.960938 L 561.46875 259.011719 Z M 559.710938 259.011719 "/>
<path fill-rule="nonzero" fill="rgb(35.293579%, 35.293579%, 35.293579%)" fill-opacity="1" d="M 559.417969 257.691406 L 582.578125 257.691406 C 583.546875 257.691406 584.335938 258.480469 584.335938 259.449219 C 584.335938 260.421875 583.546875 261.210938 582.578125 261.210938 L 559.417969 261.210938 C 558.445312 261.210938 557.660156 260.421875 557.660156 259.449219 C 557.660156 258.480469 558.445312 257.691406 559.417969 257.691406 Z M 559.417969 257.691406 "/>
<path fill-rule="nonzero" fill="rgb(35.293579%, 35.293579%, 35.293579%)" fill-opacity="1" d="M 561.03125 259.011719 C 561.03125 261.160156 557.804688 261.160156 557.804688 259.011719 C 557.804688 256.863281 561.03125 256.863281 561.03125 259.011719 Z M 561.03125 259.011719 "/>
<path fill-rule="nonzero" fill="rgb(35.293579%, 35.293579%, 35.293579%)" fill-opacity="1" d="M 624.75 241.261719 L 624.75 254.769531 C 624.75 255.757812 624.890625 256.664062 625.175781 257.492188 C 625.460938 258.316406 625.878906 259.023438 626.429688 259.613281 C 626.980469 260.203125 627.652344 260.664062 628.441406 260.996094 C 629.226562 261.328125 630.125 261.496094 631.132812 261.496094 C 632.140625 261.496094 633.039062 261.328125 633.828125 260.996094 C 634.613281 260.664062 635.285156 260.203125 635.835938 259.613281 C 636.386719 259.023438 636.804688 258.316406 637.089844 257.492188 C 637.375 256.664062 637.515625 255.757812 637.515625 254.769531 L 637.515625 241.261719 L 635.949219 241.261719 L 635.949219 254.769531 C 635.949219 256.363281 635.53125 257.636719 634.695312 258.589844 C 633.859375 259.539062 632.671875 260.011719 631.132812 260.011719 C 629.59375 260.011719 628.40625 259.539062 627.570312 258.589844 C 626.734375 257.636719 626.316406 256.363281 626.316406 254.769531 L 626.316406 241.261719 Z M 624.75 241.261719 "/>
<path fill-rule="nonzero" fill="rgb(35.293579%, 35.293579%, 35.293579%)" fill-opacity="1" d="M 697.386719 250.492188 L 700.609375 250.492188 C 701.730469 250.492188 702.71875 250.328125 703.574219 249.996094 C 704.429688 249.664062 705.097656 249.167969 705.582031 248.511719 C 706.066406 247.859375 706.308594 247.046875 706.308594 246.078125 C 706.308594 245.011719 706.070312 244.125 705.597656 243.410156 C 705.121094 242.699219 704.453125 242.164062 703.585938 241.800781 C 702.722656 241.441406 701.691406 241.261719 700.496094 241.261719 L 696.164062 241.261719 L 696.164062 261.210938 L 700.78125 261.210938 C 702.070312 261.210938 703.214844 261 704.214844 260.582031 C 705.210938 260.164062 705.996094 259.527344 706.566406 258.671875 C 707.136719 257.820312 707.421875 256.734375 707.421875 255.425781 C 707.421875 254.511719 707.234375 253.71875 706.863281 253.042969 C 706.492188 252.371094 706 251.816406 705.382812 251.378906 C 704.765625 250.941406 704.066406 250.613281 703.289062 250.394531 C 702.507812 250.175781 701.710938 250.066406 700.894531 250.066406 L 697.386719 250.066406 L 697.386719 250.976562 L 700.78125 250.976562 C 701.464844 250.976562 702.105469 251.074219 702.703125 251.261719 C 703.300781 251.453125 703.839844 251.734375 704.3125 252.105469 C 704.789062 252.476562 705.160156 252.929688 705.425781 253.472656 C 705.691406 254.015625 705.824219 254.636719 705.824219 255.339844 C 705.824219 256.328125 705.617188 257.148438 705.195312 257.804688 C 704.777344 258.460938 704.191406 258.957031 703.429688 259.300781 C 702.671875 259.640625 701.785156 259.8125 700.78125 259.8125 L 697.730469 259.8125 L 697.730469 242.65625 L 700.496094 242.65625 C 701.785156 242.65625 702.816406 242.964844 703.585938 243.582031 C 704.355469 244.199219 704.742188 245.058594 704.742188 246.160156 C 704.742188 246.941406 704.550781 247.582031 704.171875 248.085938 C 703.792969 248.589844 703.277344 248.964844 702.632812 249.210938 C 701.984375 249.457031 701.273438 249.582031 700.496094 249.582031 L 697.386719 249.582031 Z M 697.386719 250.492188 "/>
<path fill-rule="nonzero" fill="rgb(47.842407%, 47.842407%, 47.842407%)" fill-opacity="1" d="M 413.378906 251.234375 L 467.378906 251.234375 L 467.378906 252.132812 L 413.378906 252.132812 Z M 413.378906 251.234375 "/>
<path fill-rule="nonzero" fill="rgb(47.842407%, 47.842407%, 47.842407%)" fill-opacity="1" d="M 723.960938 251.234375 L 777.960938 251.234375 L 777.960938 252.132812 L 723.960938 252.132812 Z M 723.960938 251.234375 "/>
</svg>
